<svg xmlns="http://www.w3.org/2000/svg" width="170" height="170" ><path d="M52.6 147.1h64.7c6.4 0 7.1-.7 7.1-7.1v-7.1c0-6.4-.7-7.1-7.1-7.1H52.6c-6.4 0-7.1-.7-7.1-7.1V51.3c0-6.4.7-7.1 7.1-7.1h64.7c6.4 0 7.1.7 7.1 7.1v28.4c0 6.4-.7 7.1-7.1 7.1H93.4c-6.4 0-7.1-.7-7.1-7.1V68.2c0-6.4-.7-7.1-7.1-7.1s-7.3.7-9.2 6.7l-4.6 14.4c-2 6-2.1 7.4-2.1 13.8v1.4c0 7.8 2.8 10.6 10.6 10.6h43.4c6.4 0 7.1-.7 7.1-7.1v-7.1c0-6.4.7-7.1 7.1-7.1h8.9c6.4 0 7.1-.7 7.1-7.1V51.2c0-6.4-.7-7.1-7.1-7.1h-8.9c-6.4 0-7.1-.7-7.1-7.1v-7.1c0-6.4-.7-7.1-7.1-7.1H52.6c-6.4 0-7.1.7-7.1 7.1V37c0 6.4-.7 7.1-7.1 7.1h-8.9c-6.4 0-7.1.7-7.1 7.1v67.4c0 6.4.7 7.1 7.1 7.1h8.9c6.4 0 7.1.7 7.1 7.1v7.1c0 6.4.7 7.1 7.1 7.1Z"/></svg>