<svg xmlns="http://www.w3.org/2000/svg" width="250" height="250"><path d="M132.9 169c-4.6 5.4-4.6 6.6 1 10.9l4.8 4c5.6 4.4 6.7 4.4 11.3-1l29-34.3c4.6-5.4 4.6-6.6-1-10.9l-4.8-4c-5.6-4.4-6.7-4.4-11.3 1l-29 34.3Zm-63.3-60.1c-4.8 5.4-4.8 6.6.8 10.9l4.8 4c5.6 4.4 6.7 4.4 11.5-1l44.5-50.2c4.8-5.4 4.8-6.6-.8-10.9l-4.8-4c-5.6-4.4-6.7-4.4-11.5 1l-44.5 50.2Zm-5.8 72.9v-7.9c0-7.1.8-7.9 7.9-7.9h9.9c7.1 0 7.9.8 7.9 7.9v7.9c0 7.1-.8 7.9-7.9 7.9h-9.9c-7.1 0-7.9-.8-7.9-7.9Zm-25.8 0c0 7.1.8 7.9 7.9 7.9h9.9c7.1 0 7.9.8 7.9 7.9v7.9c0 7.1.8 7.9 7.9 7.9h9.9c7.1 0 7.9-.8 7.9-7.9v-7.9c0-7.1.8-7.9 7.9-7.9h9.9c7.1 0 7.9-.8 7.9-7.9v-7.9c0-7.1-.8-7.9-7.9-7.9h-9.9c-7.1 0-7.9-.8-7.9-7.9v-7.9c0-7.1-.8-7.9-7.9-7.9h-9.9c-7.1 0-7.9.8-7.9 7.9v7.9c0 7.1-.8 7.9-7.9 7.9h-9.9c-7.1 0-7.9.8-7.9 7.9v7.9Zm76-46.1 4.8 4c5.6 4.4 6.7 4.4 11.5-.8l78.2-84.4c4.8-5.2 4.8-6.4-.8-10.7l-4.8-4c-5.6-4.4-6.7-4.4-11.5.8L113.2 125c-4.8 5.2-4.8 6.4.8 10.7Z"/></svg>