<svg xmlns="http://www.w3.org/2000/svg" width="170" height="170" data-name="Layer 1"><path d="M91.4 79.4c-.3 3.8.1 4.3 3.4 4.3h7.7c3.3 0 3.8-.4 4.8-4.1l2.7-10.4c1.1-4.4.1-6-4-6h-9.9c-3.3 0-3.7.4-4 4.3l-.8 12.1Zm-33-10.3 2.7 10.4c1 3.7 1.5 4.1 4.8 4.1h7.7c3.3 0 3.7-.4 3.4-4.3l-.8-12.1c-.3-3.8-.7-4.3-4-4.3h-9.9c-4.1 0-5.1 1.6-4 6Zm-16.8-6.9 8.5-17.6c2.2-4.4 3-4.9 8-4.9h52.2c4.9 0 5.6.5 7.8 4.9l8.6 17.6c2.2 4.4 2.1 5.4-.7 9.6l-34.6 53.8c-2.7 4.3-3.6 4.7-8.5 4.7h-.3c-4.9 0-5.8-.4-8.4-4.7L41.9 71.8c-2.6-4.3-2.6-5.2-.4-9.6Zm37.6 84.6h3.7c4.9 0 5.5-.5 5.5-5.5v-5.5c0-4.9 1-5.5 4.4-5.5h.3c10.7 0 19.6-4.8 26.2-15l25-39c3.8-5.9 4.1-12.6.7-18.9L132 33c-3.4-6.3-9.1-9.7-16.2-9.7H52.6c-7.1 0-12.9 3.4-16.2 9.6l-9.9 18.5c-5.8 10.8-5.5 20.6 1 30.9l34.9 55.2c3.8 6 9.7 9.3 16.9 9.3Z"/></svg>